<svg width="32" height="32" fill="none" xmlns="http://www.w3.org/2000/svg"><path fill-rule="evenodd" clip-rule="evenodd" d="M16 32c8.837 0 16-7.163 16-16S24.837 0 16 0 0 7.163 0 16s7.163 16 16 16Z" fill="url(#a)"/><mask id="b" style="mask-type:luminance" maskUnits="userSpaceOnUse" x="0" y="0" width="32" height="32"><path fill-rule="evenodd" clip-rule="evenodd" d="M16 32c8.837 0 16-7.163 16-16S24.837 0 16 0 0 7.163 0 16s7.163 16 16 16Z" fill="#fff"/></mask><g mask="url(#b)"><g filter="url(#c)"><path fill-rule="evenodd" clip-rule="evenodd" d="M26 45c13.255 0 24-7.163 24-16S38 13 26 13 2 20.163 2 29s10.745 16 24 16Z" fill="#5C1F1E"/></g><g style="mix-blend-mode:multiply" filter="url(#d)"><path fill-rule="evenodd" clip-rule="evenodd" d="M3.38 47.071c17.004 0 30.788-7.163 30.788-16 0-8.836-13.784-16-30.787-16s-30.787 7.164-30.787 16c0 8.837 13.784 16 30.787 16Z" fill="#006CAA"/></g><g style="mix-blend-mode:multiply" filter="url(#e)"><path fill-rule="evenodd" clip-rule="evenodd" d="M33.213 49.807c17.003 0 30.787-7.164 30.787-16 0-8.837-13.784-16-30.787-16s-30.787 7.163-30.787 16c0 8.836 13.784 16 30.787 16Z" fill="#104"/></g></g><defs><filter id="c" x="2" y="13" width="48" height="44" filterUnits="userSpaceOnUse" color-interpolation-filters="sRGB"><feFlood flood-opacity="0" result="BackgroundImageFix"/><feBlend in="SourceGraphic" in2="BackgroundImageFix" result="shape"/><feColorMatrix in="SourceAlpha" values="0 0 0 0 0 0 0 0 0 0 0 0 0 0 0 0 0 0 127 0" result="hardAlpha"/><feOffset dy="13"/><feGaussianBlur stdDeviation="6"/><feComposite in2="hardAlpha" operator="arithmetic" k2="-1" k3="1"/><feColorMatrix values="0 0 0 0 0.073125 0 0 0 0 0.616613 0 0 0 0 0.975 0 0 0 1 0"/><feBlend in2="shape" result="effect1_innerShadow_125_1307"/></filter><filter id="d" x="-27.406" y="15.071" width="61.574" height="52" filterUnits="userSpaceOnUse" color-interpolation-filters="sRGB"><feFlood flood-opacity="0" result="BackgroundImageFix"/><feBlend in="SourceGraphic" in2="BackgroundImageFix" result="shape"/><feColorMatrix in="SourceAlpha" values="0 0 0 0 0 0 0 0 0 0 0 0 0 0 0 0 0 0 127 0" result="hardAlpha"/><feOffset dy="20"/><feGaussianBlur stdDeviation="18"/><feComposite in2="hardAlpha" operator="arithmetic" k2="-1" k3="1"/><feColorMatrix values="0 0 0 0 0.14401 0 0 0 0 0.619825 0 0 0 0 0.9875 0 0 0 1 0"/><feBlend in2="shape" result="effect1_innerShadow_125_1307"/></filter><filter id="e" x="2.426" y="17.807" width="61.574" height="44" filterUnits="userSpaceOnUse" color-interpolation-filters="sRGB"><feFlood flood-opacity="0" result="BackgroundImageFix"/><feBlend in="SourceGraphic" in2="BackgroundImageFix" result="shape"/><feColorMatrix in="SourceAlpha" values="0 0 0 0 0 0 0 0 0 0 0 0 0 0 0 0 0 0 127 0" result="hardAlpha"/><feOffset dy="12"/><feGaussianBlur stdDeviation="18"/><feComposite in2="hardAlpha" operator="arithmetic" k2="-1" k3="1"/><feColorMatrix values="0 0 0 0 0.0535938 0 0 0 0 0.344225 0 0 0 0 0.6125 0 0 0 0.25 0"/><feBlend in2="shape" result="effect1_innerShadow_125_1307"/></filter><linearGradient id="a" x1="15.071" y1="32" x2="15.071" y2="0" gradientUnits="userSpaceOnUse"><stop stop-color="#fff"/><stop offset="1" stop-color="#FFE500"/></linearGradient></defs></svg>